<?xml version="1.0" standalone="no"?>
<!DOCTYPE svg PUBLIC "-//W3C//DTD SVG 20010904//EN"
 "http://www.w3.org/TR/2001/REC-SVG-20010904/DTD/svg10.dtd">
<svg version="1.0" xmlns="http://www.w3.org/2000/svg"
 width="710.000000pt" height="190.000000pt" viewBox="0 0 710.000000 190.000000"
 preserveAspectRatio="xMidYMid meet">
<metadata>
Created by potrace 1.16, written by Peter Selinger 2001-2019
</metadata>
<g transform="translate(0.000000,190.000000) scale(0.100000,-0.100000)"
fill="#000000" stroke="none">
<path d="M0 950 l0 -950 3550 0 3550 0 0 950 0 950 -3550 0 -3550 0 0 -950z
m6910 -5 l0 -735 -3375 0 -3375 0 0 735 0 735 3375 0 3375 0 0 -735z"/>
<path d="M220 945 l0 -675 1815 0 1815 0 0 675 0 675 -1815 0 -1815 0 0 -675z
m607 536 c12 -11 40 -56 64 -100 39 -74 59 -98 59 -71 0 10 169 157 204 177
26 15 269 17 297 3 18 -10 19 -26 19 -476 l0 -465 -27 -26 c-79 -72 -176 -143
-207 -149 -19 -3 -78 -4 -130 -2 -136 4 -130 -4 -134 223 l-4 185 -44 -34
c-25 -19 -58 -38 -75 -41 -29 -7 -29 -7 -29 -81 0 -85 5 -78 -128 -185 -83
-67 -104 -73 -239 -67 -79 3 -98 7 -109 23 -11 15 -14 101 -14 466 0 246 3
454 6 463 3 9 49 52 101 96 l94 80 138 0 c122 0 140 -2 158 -19z m1576 -3 c13
-13 57 -115 102 -233 l80 -210 3 -243 4 -243 -30 -27 c-16 -15 -62 -55 -102
-87 l-73 -60 -127 0 c-93 0 -131 4 -143 14 -14 11 -17 33 -17 117 0 97 -1 104
-20 104 -16 0 -20 -7 -20 -30 0 -25 -14 -42 -91 -107 -50 -43 -105 -84 -122
-92 -22 -9 -64 -12 -140 -9 -93 3 -111 6 -123 23 -20 28 -20 408 1 488 19 72
153 427 168 446 7 8 54 50 106 93 l94 78 214 0 c209 0 214 -1 236 -22z m1111
7 c96 -25 156 -78 181 -159 12 -39 15 -107 15 -315 0 -147 -5 -282 -10 -302
-16 -56 -48 -97 -140 -177 -172 -149 -182 -152 -526 -159 -297 -6 -328 -2
-338 49 -8 43 -6 879 3 901 3 10 49 54 101 98 l94 79 281 0 c219 0 294 -3 339
-15z"/>
<path d="M530 1480 c-13 -8 -15 -72 -18 -456 -2 -390 -1 -450 13 -470 15 -23
20 -24 135 -24 94 0 122 3 134 16 14 13 16 51 16 257 l1 242 39 -75 c22 -41
49 -83 61 -92 25 -21 116 -25 143 -5 9 7 37 48 61 92 l44 80 1 -247 c0 -234 1
-248 19 -258 11 -5 74 -10 140 -10 109 0 121 2 131 19 15 30 14 913 -2 929 -8
8 -55 12 -143 12 -112 0 -134 -3 -149 -17 -10 -10 -48 -72 -85 -138 -47 -86
-71 -120 -84 -120 -13 0 -39 36 -88 125 -39 69 -77 131 -86 138 -20 15 -260
17 -283 2z m217 -132 c12 -13 60 -83 107 -156 85 -130 115 -159 150 -146 8 3
60 75 116 160 77 117 107 155 127 160 59 15 58 20 58 -367 l1 -354 -6 349 c-4
306 -7 350 -21 359 -9 6 -23 7 -32 4 -9 -3 -61 -74 -116 -156 -56 -83 -110
-155 -122 -161 -43 -24 -64 -5 -170 153 -56 83 -107 155 -113 160 -6 4 -20 6
-31 5 -19 -3 -20 -12 -25 -358 l-5 -355 -3 356 c-1 196 1 359 5 362 14 15 61
6 80 -15z"/>
<path d="M1947 1478 c-9 -7 -46 -88 -81 -180 -111 -286 -108 -275 -114 -511
-6 -271 -14 -257 148 -257 150 0 150 0 150 142 l0 98 115 0 115 0 0 -104 c0
-139 -3 -136 154 -136 96 0 126 3 136 15 8 10 11 75 8 247 l-4 233 -41 110
c-82 222 -125 325 -139 340 -21 20 -420 22 -447 3z m341 -137 c15 -16 54 -93
87 -172 l59 -144 2 -185 c0 -102 -1 -134 -3 -72 l-4 112 -259 0 -259 0 -4
-112 c-2 -62 -3 -27 -3 77 l1 190 54 135 c81 203 76 198 214 199 86 1 90 0
115 -28z"/>
<path d="M2073 1350 c-31 -13 -45 -38 -103 -190 -38 -98 -54 -154 -58 -202
l-5 -68 257 0 c294 0 275 -7 258 94 -11 70 -114 320 -143 351 -16 16 -35 20
-102 22 -45 2 -92 -1 -104 -7z m124 -132 c6 -7 24 -57 40 -110 l31 -98 -105 0
c-80 0 -104 3 -101 13 3 6 13 37 22 67 41 131 46 140 76 140 15 0 32 -6 37
-12z"/>
<path d="M2893 1479 c-10 -10 -13 -118 -13 -471 0 -442 1 -458 19 -468 12 -6
117 -10 273 -10 341 0 411 16 477 106 46 62 51 99 51 375 0 296 -7 336 -69
398 -69 69 -98 74 -431 79 -229 2 -298 1 -307 -9z m584 -138 c74 -42 78 -60
78 -336 0 -279 -3 -292 -83 -328 -42 -19 -69 -22 -249 -25 l-203 -4 0 362 0
361 208 -3 c198 -3 209 -4 249 -27z"/>
<path d="M3035 1349 c-3 -8 -4 -165 -3 -349 l3 -335 195 1 c220 1 255 9 290
66 19 31 20 50 20 273 0 275 -5 295 -75 330 -34 17 -67 20 -232 23 -157 4
-194 2 -198 -9z m349 -135 c13 -13 16 -46 16 -202 0 -103 -4 -192 -8 -199 -13
-21 -62 -33 -138 -33 l-74 0 0 225 0 225 94 0 c73 0 98 -4 110 -16z"/>
<path d="M5220 1504 c-136 -24 -210 -64 -250 -134 l-25 -45 0 -315 0 -315 25
-45 c31 -55 74 -84 164 -112 60 -19 95 -22 221 -23 129 0 160 3 223 23 87 27
154 84 171 147 7 25 11 151 11 335 0 264 -2 299 -19 335 -46 102 -150 145
-361 150 -74 2 -146 2 -160 -1z m224 -273 c14 -12 16 -43 16 -221 0 -242 4
-232 -101 -238 -62 -4 -70 -2 -93 21 l-26 26 0 194 c0 205 1 211 50 230 26 11
137 2 154 -12z"/>
<path d="M4003 1479 c-10 -10 -13 -117 -13 -465 0 -410 2 -454 17 -469 15 -15
47 -17 332 -13 298 4 318 5 356 25 48 25 80 58 95 98 18 46 24 212 11 278 -18
82 -47 113 -133 141 -16 5 -15 8 6 29 35 35 49 99 43 185 -7 94 -37 143 -105
175 -44 20 -65 22 -322 25 -212 2 -278 0 -287 -9z m435 -232 c15 -12 16 -99 0
-115 -7 -7 -40 -12 -80 -12 l-68 0 0 75 0 76 68 -7 c37 -4 73 -11 80 -17z m60
-349 c7 -7 12 -35 12 -63 0 -28 -5 -56 -12 -63 -8 -8 -47 -12 -110 -12 l-98 0
0 75 0 75 98 0 c63 0 102 -4 110 -12z"/>
<path d="M5932 1478 c-8 -8 -12 -46 -12 -107 0 -114 12 -144 94 -254 31 -40
56 -79 56 -86 0 -6 -24 -44 -54 -84 -85 -112 -96 -142 -96 -274 0 -146 -4
-143 150 -143 151 0 150 -1 150 125 0 92 0 93 41 154 34 51 45 61 69 61 24 0
36 -10 70 -59 40 -60 40 -60 40 -155 0 -127 -2 -126 154 -126 81 0 126 4 134
12 15 15 16 217 2 268 -5 19 -39 74 -75 123 -36 48 -65 92 -65 97 0 6 25 44
56 85 82 112 94 143 94 255 0 62 -4 100 -12 108 -8 8 -54 12 -140 12 -150 0
-148 1 -148 -108 0 -64 -3 -73 -41 -130 -50 -75 -73 -80 -118 -25 -48 58 -61
94 -61 170 0 40 -5 74 -12 81 -8 8 -53 12 -138 12 -85 0 -130 -4 -138 -12z"/>
</g>
</svg>
