<?xml version="1.0" standalone="no"?>
<!DOCTYPE svg PUBLIC "-//W3C//DTD SVG 20010904//EN"
 "http://www.w3.org/TR/2001/REC-SVG-20010904/DTD/svg10.dtd">
<svg version="1.0" xmlns="http://www.w3.org/2000/svg"
 width="512.000000pt" height="512.000000pt" viewBox="0 0 512.000000 512.000000"
 preserveAspectRatio="xMidYMid meet">

<g transform="translate(0.000000,512.000000) scale(0.100000,-0.100000)"
fill="#000000" stroke="none">
<path d="M2454 5105 c-34 -7 -85 -25 -115 -40 -66 -34 -165 -133 -202 -202
-56 -105 -57 -115 -57 -1005 l0 -818 -817 0 c-888 0 -896 -1 -1004 -56 -29
-14 -82 -55 -116 -90 -144 -144 -180 -354 -93 -542 36 -78 133 -178 209 -216
108 -55 116 -56 1004 -56 l817 0 0 -817 c0 -888 1 -896 56 -1004 38 -76 138
-173 216 -209 188 -87 398 -51 542 93 35 34 76 87 90 116 55 108 56 116 56
1004 l0 817 818 0 c887 0 895 1 1003 56 76 38 173 138 209 216 87 188 51 398
-93 542 -34 35 -87 76 -116 90 -108 55 -116 56 -1003 56 l-818 0 0 818 c0 887
-1 895 -56 1003 -34 69 -134 169 -203 203 -59 31 -165 56 -226 55 -22 0 -67
-7 -101 -14z"/>
</g>
</svg>
